<?xml version="1.0" encoding="UTF-8"?>
<svg id="_レイヤー_1" data-name="レイヤー 1" xmlns="http://www.w3.org/2000/svg" viewBox="0 0 99.98 99.98">
  <defs>
    <style>
      .cls-1 {
        fill: #fff;
      }

      .cls-2 {
        fill: #9a0000;
      }

      .cls-3 {
        fill: #c00;
      }
    </style>
  </defs>
  <g>
    <path class="cls-3" d="M99.98,49.99C99.98,22.38,77.6,0,49.99,0S0,22.38,0,49.99H20s79.98,0,79.98,0Z"/>
    <path class="cls-2" d="M0,49.99c0,27.61,22.38,49.99,49.99,49.99s49.99-22.38,49.99-49.99H0Z"/>
  </g>
  <g>
    <path class="cls-1" d="M49.99,17l2,2.2h-4l2-2.2Zm-4,4.4h8l2,2.2h-12l2-2.2Zm-5,5.5h18l5,5.5h-27.99l5-5.5Z"/>
    <polygon class="cls-1" points="29.99 38.99 20 49.99 49.99 82.98 79.98 49.99 69.99 38.99 29.99 38.99"/>
  </g>
</svg>