<svg width="352" height="352" viewBox="0 0 352 352" fill="none" xmlns="http://www.w3.org/2000/svg">
<path d="M48 124.8C48 97.9175 48 84.4762 53.2317 74.2085C57.8336 65.1767 65.1767 57.8336 74.2085 53.2317C84.4762 48 97.9175 48 124.8 48H227.2C254.083 48 267.524 48 277.792 53.2317C286.823 57.8336 294.166 65.1767 298.768 74.2085C304 84.4762 304 97.9175 304 124.8V227.2C304 254.083 304 267.524 298.768 277.792C294.166 286.823 286.823 294.166 277.792 298.768C267.524 304 254.083 304 227.2 304H124.8C97.9175 304 84.4762 304 74.2085 298.768C65.1767 294.166 57.8336 286.823 53.2317 277.792C48 267.524 48 254.083 48 227.2V124.8Z" fill="url(#paint0_linear_1639_47158)"/>
<g style="mix-blend-mode:color-dodge">
<path fill-rule="evenodd" clip-rule="evenodd" d="M177 64.1787C177 63.6264 176.552 63.1787 176 63.1787C175.448 63.1787 175 63.6264 175 64.1787V76.1787C175 76.731 175.448 77.1787 176 77.1787C176.552 77.1787 177 76.731 177 76.1787V64.1787ZM184.323 64.4842C184.359 63.9331 183.942 63.457 183.39 63.4209C182.839 63.3848 182.363 63.8023 182.327 64.3534L181.542 76.3277C181.506 76.8788 181.924 77.3548 182.475 77.391C183.026 77.4271 183.502 77.0096 183.538 76.4585L184.323 64.4842ZM190.749 64.1452C191.297 64.2173 191.682 64.7196 191.61 65.2672L190.044 77.1645C189.972 77.7121 189.47 78.0975 188.922 78.0255C188.374 77.9534 187.989 77.451 188.061 76.9035L189.627 65.0061C189.699 64.4586 190.202 64.0731 190.749 64.1452ZM198.831 66.5258C198.939 65.9841 198.587 65.4577 198.045 65.3499C197.503 65.2422 196.977 65.5939 196.869 66.1356L194.528 77.905C194.42 78.4467 194.772 78.9732 195.314 79.0809C195.856 79.1887 196.382 78.8369 196.49 78.2952L198.831 66.5258ZM205.247 67.0294C205.78 67.1723 206.097 67.7206 205.954 68.2541L202.848 79.8452C202.705 80.3787 202.157 80.6953 201.623 80.5523C201.09 80.4094 200.773 79.8611 200.916 79.3276L204.022 67.7365C204.165 67.203 204.713 66.8864 205.247 67.0294ZM212.948 70.4444C213.126 69.9214 212.846 69.3536 212.323 69.176C211.8 68.9985 211.232 69.2786 211.054 69.8015L207.197 81.1647C207.019 81.6877 207.3 82.2555 207.823 82.4331C208.345 82.6106 208.913 82.3305 209.091 81.8076L212.948 70.4444ZM219.785 73.087L215.192 84.1735C214.981 84.6838 214.396 84.9261 213.886 84.7147C213.376 84.5034 213.133 83.9184 213.345 83.4082L217.937 72.3216C218.148 71.8114 218.733 71.5691 219.243 71.7804C219.754 71.9918 219.996 72.5767 219.785 73.087ZM226.433 76.1712C226.678 75.6759 226.474 75.0763 225.979 74.8321C225.483 74.5878 224.884 74.7913 224.639 75.2866L219.332 86.0491C219.088 86.5444 219.291 87.144 219.787 87.3883C220.282 87.6325 220.882 87.429 221.126 86.9337L226.433 76.1712ZM232.5 78.3176C232.978 78.5937 233.142 79.2053 232.866 79.6836L226.866 90.0759C226.59 90.5542 225.978 90.7181 225.5 90.4419C225.022 90.1658 224.858 89.5542 225.134 89.0759L231.134 78.6836C231.41 78.2053 232.022 78.0414 232.5 78.3176ZM239.055 83.6097C239.362 83.1505 239.239 82.5295 238.779 82.2227C238.32 81.9158 237.699 82.0393 237.392 82.4986L230.726 92.4762C230.419 92.9354 230.542 93.5564 231.001 93.8632C231.461 94.1701 232.082 94.0465 232.389 93.5873L239.055 83.6097ZM244.79 86.5301C245.228 86.8663 245.311 87.4941 244.975 87.9322L237.669 97.4525C237.333 97.8906 236.705 97.9733 236.267 97.6371C235.829 97.3008 235.746 96.6731 236.083 96.2349L243.388 86.7147C243.724 86.2766 244.352 86.1939 244.79 86.5301ZM250.598 92.632C250.963 92.2168 250.921 91.585 250.506 91.2208C250.091 90.8567 249.459 90.8981 249.095 91.3133L241.183 100.335C240.819 100.751 240.86 101.382 241.275 101.747C241.69 102.111 242.322 102.069 242.686 101.654L250.598 92.632ZM255.903 96.2758C256.294 96.6663 256.294 97.2995 255.903 97.69L247.418 106.175C247.027 106.566 246.394 106.566 246.004 106.175C245.613 105.785 245.613 105.152 246.004 104.761L254.489 96.2758C254.879 95.8852 255.513 95.8852 255.903 96.2758ZM260.865 103.084C261.281 102.72 261.322 102.088 260.958 101.673C260.594 101.258 259.962 101.216 259.547 101.58L250.525 109.493C250.109 109.857 250.068 110.489 250.432 110.904C250.796 111.319 251.428 111.36 251.843 110.996L260.865 103.084ZM265.649 107.389C265.985 107.827 265.903 108.455 265.464 108.791L255.944 116.096C255.506 116.432 254.878 116.349 254.542 115.911C254.206 115.473 254.289 114.845 254.727 114.509L264.247 107.204C264.685 106.868 265.313 106.951 265.649 107.389ZM269.68 114.786C270.14 114.479 270.263 113.858 269.956 113.399C269.649 112.94 269.028 112.816 268.569 113.123L258.592 119.79C258.132 120.097 258.009 120.718 258.316 121.177C258.622 121.636 259.243 121.76 259.703 121.453L269.68 114.786ZM273.861 119.679C274.137 120.157 273.973 120.768 273.495 121.045L263.103 127.045C262.624 127.321 262.013 127.157 261.736 126.679C261.46 126.2 261.624 125.589 262.103 125.313L272.495 119.313C272.973 119.036 273.585 119.2 273.861 119.679ZM276.892 127.539C277.387 127.295 277.591 126.695 277.347 126.2C277.102 125.704 276.503 125.501 276.007 125.745L265.245 131.053C264.75 131.297 264.546 131.896 264.79 132.392C265.035 132.887 265.634 133.091 266.13 132.846L276.892 127.539ZM280.399 132.935C280.61 133.445 280.368 134.03 279.857 134.242L268.771 138.834C268.261 139.045 267.676 138.803 267.464 138.293C267.253 137.782 267.495 137.197 268.005 136.986L279.092 132.394C279.602 132.182 280.187 132.425 280.399 132.935ZM282.378 141.125C282.901 140.947 283.181 140.379 283.003 139.856C282.826 139.333 282.258 139.053 281.735 139.231L270.372 143.088C269.849 143.266 269.569 143.833 269.746 144.356C269.924 144.879 270.491 145.159 271.014 144.982L282.378 141.125ZM285.15 146.932C285.293 147.466 284.976 148.014 284.443 148.157L272.851 151.263C272.318 151.406 271.77 151.089 271.627 150.556C271.484 150.022 271.8 149.474 272.334 149.331L283.925 146.225C284.458 146.082 285.007 146.399 285.15 146.932ZM286.043 155.31C286.585 155.202 286.937 154.676 286.829 154.134C286.721 153.592 286.195 153.241 285.653 153.348L273.884 155.689C273.342 155.797 272.99 156.324 273.098 156.865C273.206 157.407 273.732 157.759 274.274 157.651L286.043 155.31ZM288.033 161.429C288.105 161.977 287.72 162.479 287.172 162.551L275.275 164.118C274.728 164.19 274.225 163.804 274.153 163.257C274.081 162.709 274.466 162.207 275.014 162.135L286.911 160.569C287.459 160.496 287.961 160.882 288.033 161.429ZM287.826 169.851C288.377 169.815 288.794 169.339 288.758 168.788C288.722 168.237 288.246 167.819 287.695 167.855L275.72 168.64C275.169 168.676 274.752 169.152 274.788 169.704C274.824 170.255 275.3 170.672 275.851 170.636L287.826 169.851ZM289 176.179C289 176.731 288.552 177.179 288 177.179H276C275.448 177.179 275 176.731 275 176.179C275 175.626 275.448 175.179 276 175.179H288C288.552 175.179 289 175.626 289 176.179ZM287.695 184.502C288.246 184.538 288.722 184.12 288.758 183.569C288.794 183.018 288.377 182.542 287.826 182.506L275.851 181.721C275.3 181.685 274.824 182.102 274.788 182.654C274.752 183.205 275.169 183.681 275.721 183.717L287.695 184.502ZM288.033 190.928C287.961 191.475 287.459 191.861 286.911 191.789L275.014 190.222C274.466 190.15 274.081 189.648 274.153 189.1C274.225 188.553 274.727 188.167 275.275 188.24L287.172 189.806C287.72 189.878 288.105 190.38 288.033 190.928ZM285.653 199.01C286.195 199.118 286.721 198.766 286.829 198.224C286.937 197.683 286.585 197.156 286.043 197.048L274.274 194.707C273.732 194.6 273.206 194.951 273.098 195.493C272.99 196.035 273.342 196.561 273.884 196.669L285.653 199.01ZM285.15 205.425C285.007 205.959 284.458 206.276 283.925 206.133L272.334 203.027C271.8 202.884 271.484 202.335 271.627 201.802C271.77 201.269 272.318 200.952 272.851 201.095L284.443 204.201C284.976 204.344 285.293 204.892 285.15 205.425ZM281.735 213.127C282.258 213.304 282.826 213.024 283.003 212.501C283.181 211.978 282.901 211.41 282.378 211.233L271.015 207.375C270.492 207.198 269.924 207.478 269.746 208.001C269.569 208.524 269.849 209.092 270.372 209.269L281.735 213.127ZM280.398 219.422C280.187 219.932 279.602 220.175 279.092 219.963L268.005 215.371C267.495 215.16 267.253 214.575 267.464 214.064C267.675 213.554 268.26 213.312 268.771 213.523L279.857 218.115C280.367 218.327 280.61 218.912 280.398 219.422ZM276.008 226.612C276.503 226.856 277.103 226.653 277.347 226.158C277.591 225.662 277.388 225.063 276.892 224.818L266.13 219.511C265.634 219.267 265.035 219.47 264.791 219.965C264.546 220.461 264.75 221.06 265.245 221.305L276.008 226.612ZM273.861 232.679C273.585 233.157 272.973 233.321 272.495 233.045L262.103 227.045C261.624 226.768 261.46 226.157 261.736 225.679C262.013 225.2 262.624 225.036 263.103 225.313L273.495 231.313C273.973 231.589 274.137 232.2 273.861 232.679ZM268.569 239.234C269.028 239.541 269.649 239.418 269.956 238.958C270.263 238.499 270.139 237.878 269.68 237.571L259.703 230.905C259.243 230.598 258.622 230.721 258.316 231.18C258.009 231.64 258.132 232.261 258.591 232.568L268.569 239.234ZM265.649 244.968C265.313 245.407 264.685 245.489 264.247 245.153L254.726 237.848C254.288 237.512 254.206 236.884 254.542 236.446C254.878 236.008 255.506 235.925 255.944 236.261L265.464 243.566C265.902 243.903 265.985 244.53 265.649 244.968ZM259.547 250.778C259.962 251.142 260.594 251.1 260.958 250.685C261.322 250.27 261.281 249.638 260.865 249.274L251.843 241.362C251.428 240.998 250.796 241.039 250.432 241.454C250.068 241.869 250.109 242.501 250.525 242.865L259.547 250.778ZM255.903 256.082C255.512 256.472 254.879 256.472 254.489 256.082L246.004 247.596C245.613 247.206 245.613 246.573 246.004 246.182C246.394 245.792 247.027 245.792 247.418 246.182L255.903 254.667C256.294 255.058 256.294 255.691 255.903 256.082ZM249.095 261.044C249.459 261.459 250.091 261.501 250.506 261.137C250.921 260.772 250.963 260.141 250.598 259.725L242.686 250.703C242.322 250.288 241.69 250.247 241.275 250.611C240.86 250.975 240.818 251.607 241.183 252.022L249.095 261.044ZM244.79 265.828C244.352 266.164 243.724 266.081 243.388 265.643L236.083 256.123C235.747 255.685 235.829 255.057 236.267 254.721C236.706 254.385 237.333 254.467 237.67 254.905L244.975 264.426C245.311 264.864 245.228 265.492 244.79 265.828ZM237.392 269.859C237.699 270.318 238.32 270.441 238.779 270.135C239.239 269.828 239.362 269.207 239.055 268.748L232.388 258.77C232.082 258.311 231.461 258.187 231.001 258.494C230.542 258.801 230.419 259.422 230.725 259.881L237.392 269.859ZM232.5 274.04C232.022 274.316 231.41 274.152 231.134 273.674L225.134 263.282C224.858 262.803 225.022 262.192 225.5 261.915C225.978 261.639 226.59 261.803 226.866 262.282L232.866 272.674C233.142 273.152 232.978 273.764 232.5 274.04ZM224.639 277.071C224.884 277.566 225.483 277.769 225.979 277.525C226.474 277.281 226.677 276.681 226.433 276.186L221.126 265.424C220.881 264.928 220.282 264.725 219.787 264.969C219.291 265.213 219.088 265.813 219.332 266.308L224.639 277.071ZM219.243 280.577C218.733 280.789 218.148 280.546 217.937 280.036L213.344 268.95C213.133 268.439 213.375 267.854 213.886 267.643C214.396 267.432 214.981 267.674 215.192 268.184L219.784 279.271C219.996 279.781 219.753 280.366 219.243 280.577ZM211.054 282.557C211.232 283.08 211.8 283.36 212.323 283.182C212.846 283.005 213.126 282.437 212.948 281.914L209.091 270.551C208.913 270.028 208.346 269.748 207.823 269.925C207.3 270.103 207.02 270.671 207.197 271.194L211.054 282.557ZM205.246 285.328C204.713 285.471 204.165 285.155 204.022 284.621L200.916 273.03C200.773 272.497 201.09 271.948 201.623 271.805C202.156 271.663 202.705 271.979 202.848 272.513L205.954 284.104C206.097 284.637 205.78 285.185 205.246 285.328ZM196.869 286.222C196.977 286.764 197.504 287.116 198.045 287.008C198.587 286.9 198.939 286.374 198.831 285.832L196.49 274.062C196.382 273.521 195.856 273.169 195.314 273.277C194.772 273.385 194.421 273.911 194.528 274.453L196.869 286.222ZM190.75 288.212C190.202 288.284 189.7 287.899 189.628 287.351L188.061 275.454C187.989 274.906 188.375 274.404 188.922 274.332C189.47 274.26 189.972 274.645 190.044 275.193L191.61 287.09C191.683 287.638 191.297 288.14 190.75 288.212ZM182.327 288.005C182.363 288.556 182.839 288.973 183.391 288.937C183.942 288.901 184.359 288.425 184.323 287.874L183.538 275.9C183.502 275.348 183.026 274.931 182.475 274.967C181.924 275.003 181.506 275.479 181.542 276.03L182.327 288.005ZM176 289.179C175.448 289.179 175 288.731 175 288.179V276.179C175 275.626 175.448 275.179 176 275.179C176.552 275.179 177 275.626 177 276.179V288.179C177 288.731 176.552 289.179 176 289.179ZM167.677 287.873C167.641 288.424 168.058 288.9 168.61 288.936C169.161 288.973 169.637 288.555 169.673 288.004L170.458 276.03C170.494 275.479 170.076 275.003 169.525 274.966C168.974 274.93 168.498 275.348 168.462 275.899L167.677 287.873ZM161.251 288.212C160.703 288.14 160.318 287.638 160.39 287.09L161.956 275.193C162.028 274.645 162.53 274.26 163.078 274.332C163.626 274.404 164.011 274.906 163.939 275.454L162.373 287.351C162.301 287.899 161.798 288.284 161.251 288.212ZM153.169 285.832C153.061 286.373 153.413 286.9 153.955 287.008C154.497 287.115 155.023 286.763 155.131 286.222L157.472 274.452C157.58 273.911 157.228 273.384 156.686 273.277C156.144 273.169 155.618 273.521 155.51 274.062L153.169 285.832ZM146.753 285.328C146.22 285.185 145.903 284.637 146.046 284.103L149.152 272.512C149.295 271.979 149.843 271.662 150.377 271.805C150.91 271.948 151.227 272.496 151.084 273.03L147.978 284.621C147.835 285.154 147.287 285.471 146.753 285.328ZM139.052 281.913C138.874 282.436 139.154 283.004 139.677 283.181C140.2 283.359 140.768 283.079 140.946 282.556L144.803 271.193C144.981 270.67 144.7 270.102 144.177 269.924C143.655 269.747 143.087 270.027 142.909 270.55L139.052 281.913ZM132.757 280.577C132.246 280.366 132.004 279.781 132.215 279.27L136.808 268.184C137.019 267.674 137.604 267.431 138.114 267.643C138.624 267.854 138.867 268.439 138.655 268.949L134.063 280.036C133.852 280.546 133.267 280.788 132.757 280.577ZM125.567 276.186C125.323 276.682 125.526 277.281 126.021 277.525C126.517 277.77 127.116 277.566 127.361 277.071L132.668 266.308C132.912 265.813 132.709 265.213 132.214 264.969C131.718 264.725 131.119 264.928 130.874 265.424L125.567 276.186ZM119.5 274.04C119.022 273.764 118.858 273.152 119.134 272.674L125.134 262.282C125.41 261.803 126.022 261.639 126.5 261.915C126.978 262.192 127.142 262.803 126.866 263.282L120.866 273.674C120.59 274.152 119.978 274.316 119.5 274.04ZM112.945 268.748C112.638 269.207 112.761 269.828 113.221 270.135C113.68 270.442 114.301 270.318 114.608 269.859L121.274 259.881C121.581 259.422 121.458 258.801 120.999 258.494C120.539 258.187 119.918 258.311 119.611 258.77L112.945 268.748ZM107.21 265.827C106.772 265.491 106.689 264.863 107.025 264.425L114.33 254.905C114.667 254.467 115.294 254.384 115.733 254.72C116.171 255.057 116.253 255.684 115.917 256.122L108.612 265.643C108.276 266.081 107.648 266.164 107.21 265.827ZM101.401 259.725C101.037 260.141 101.079 260.772 101.494 261.137C101.909 261.501 102.541 261.459 102.905 261.044L110.817 252.022C111.181 251.607 111.14 250.975 110.725 250.611C110.31 250.247 109.678 250.288 109.314 250.703L101.401 259.725ZM96.0968 256.082C95.7063 255.691 95.7063 255.058 96.0968 254.667L104.582 246.182C104.973 245.792 105.606 245.792 105.996 246.182C106.387 246.573 106.387 247.206 105.996 247.596L97.5111 256.082C97.1205 256.472 96.4874 256.472 96.0968 256.082ZM91.1346 249.273C90.7193 249.637 90.6779 250.269 91.0421 250.684C91.4062 251.1 92.038 251.141 92.4533 250.777L101.475 242.865C101.891 242.501 101.932 241.869 101.568 241.454C101.204 241.038 100.572 240.997 100.157 241.361L91.1346 249.273ZM86.351 244.969C86.0147 244.531 86.0974 243.903 86.5355 243.567L96.0558 236.262C96.4939 235.925 97.1217 236.008 97.4579 236.446C97.7941 236.884 97.7115 237.512 97.2733 237.848L87.7531 245.153C87.3149 245.49 86.6872 245.407 86.351 244.969ZM82.3197 237.571C81.8605 237.878 81.737 238.499 82.0438 238.958C82.3506 239.418 82.9716 239.541 83.4308 239.234L93.4085 232.567C93.8677 232.261 93.9912 231.64 93.6844 231.18C93.3775 230.721 92.7565 230.598 92.2973 230.904L82.3197 237.571ZM78.1392 232.679C77.863 232.201 78.0269 231.589 78.5052 231.313L88.8975 225.313C89.3758 225.037 89.9874 225.201 90.2635 225.679C90.5397 226.157 90.3758 226.769 89.8975 227.045L79.5052 233.045C79.0269 233.321 78.4153 233.157 78.1392 232.679ZM75.1081 224.819C74.6128 225.063 74.4093 225.662 74.6535 226.158C74.8978 226.653 75.4974 226.857 75.9927 226.612L86.7552 221.305C87.2505 221.061 87.454 220.461 87.2098 219.966C86.9655 219.47 86.3659 219.267 85.8706 219.511L75.1081 224.819ZM71.6016 219.422C71.3902 218.912 71.6325 218.327 72.1428 218.116L83.2293 213.524C83.7396 213.312 84.3245 213.555 84.5359 214.065C84.7472 214.575 84.5049 215.16 83.9947 215.371L72.9081 219.964C72.3979 220.175 71.8129 219.933 71.6016 219.422ZM69.6225 211.233C69.0996 211.41 68.8195 211.978 68.997 212.501C69.1746 213.024 69.7424 213.304 70.2654 213.127L81.6286 209.269C82.1515 209.092 82.4316 208.524 82.2541 208.001C82.0765 207.478 81.5087 207.198 80.9857 207.376L69.6225 211.233ZM66.8503 205.425C66.7074 204.892 67.024 204.343 67.5574 204.2L79.1485 201.095C79.682 200.952 80.2303 201.268 80.3733 201.802C80.5162 202.335 80.1996 202.884 79.6662 203.026L68.0751 206.132C67.5416 206.275 66.9933 205.959 66.8503 205.425ZM65.9569 197.048C65.4153 197.155 65.0635 197.682 65.1712 198.223C65.279 198.765 65.8054 199.117 66.3471 199.009L78.1165 196.668C78.6582 196.56 79.01 196.034 78.9022 195.492C78.7945 194.951 78.268 194.599 77.7264 194.707L65.9569 197.048ZM63.9666 190.928C63.8946 190.38 64.28 189.878 64.8276 189.806L76.7249 188.24C77.2725 188.168 77.7748 188.553 77.8469 189.101C77.919 189.648 77.5335 190.15 76.986 190.223L65.0886 191.789C64.5411 191.861 64.0387 191.476 63.9666 190.928ZM64.1745 182.506C63.6234 182.542 63.206 183.018 63.2421 183.569C63.2782 184.121 63.7543 184.538 64.3054 184.502L76.2797 183.717C76.8308 183.681 77.2482 183.205 77.2121 182.654C77.176 182.103 76.7 181.685 76.1489 181.721L64.1745 182.506ZM63 176.179C63 175.626 63.4477 175.179 64 175.179H76C76.5523 175.179 77 175.626 77 176.179C77 176.731 76.5523 177.179 76 177.179H64C63.4477 177.179 63 176.731 63 176.179ZM64.3052 167.856C63.7541 167.82 63.278 168.237 63.2419 168.788C63.2058 169.339 63.6233 169.815 64.1744 169.852L76.1487 170.636C76.6998 170.673 77.1758 170.255 77.2119 169.704C77.2481 169.153 76.8306 168.677 76.2795 168.641L64.3052 167.856ZM63.9667 161.43C64.0388 160.882 64.5411 160.497 65.0887 160.569L76.986 162.135C77.5336 162.207 77.919 162.709 77.8469 163.257C77.7748 163.805 77.2725 164.19 76.725 164.118L64.8276 162.552C64.2801 162.479 63.8946 161.977 63.9667 161.43ZM66.347 153.347C65.8054 153.24 65.2789 153.591 65.1712 154.133C65.0634 154.675 65.4152 155.201 65.9569 155.309L77.7263 157.65C78.268 157.758 78.7944 157.406 78.9022 156.864C79.0099 156.323 78.6581 155.796 78.1165 155.688L66.347 153.347ZM66.8504 146.932C66.9933 146.398 67.5417 146.082 68.0751 146.225L79.6662 149.331C80.1997 149.474 80.5163 150.022 80.3733 150.555C80.2304 151.089 79.6821 151.405 79.1486 151.263L67.5575 148.157C67.024 148.014 66.7074 147.465 66.8504 146.932ZM70.2652 139.231C69.7422 139.053 69.1744 139.333 68.9969 139.856C68.8193 140.379 69.0994 140.947 69.6223 141.125L80.9855 144.982C81.5085 145.16 82.0764 144.879 82.2539 144.357C82.4314 143.834 82.1514 143.266 81.6284 143.088L70.2652 139.231ZM71.6017 132.935C71.813 132.425 72.398 132.183 72.9082 132.394L83.9948 136.986C84.505 137.198 84.7473 137.783 84.536 138.293C84.3246 138.803 83.7397 139.045 83.2294 138.834L72.1429 134.242C71.6326 134.031 71.3903 133.446 71.6017 132.935ZM75.9925 125.745C75.4972 125.501 74.8976 125.705 74.6533 126.2C74.4091 126.695 74.6126 127.295 75.1079 127.539L85.8704 132.847C86.3657 133.091 86.9653 132.887 87.2096 132.392C87.4538 131.897 87.2503 131.297 86.755 131.053L75.9925 125.745ZM78.1392 119.679C78.4153 119.201 79.0269 119.037 79.5052 119.313L89.8975 125.313C90.3758 125.589 90.5397 126.201 90.2635 126.679C89.9874 127.157 89.3758 127.321 88.8975 127.045L78.5052 121.045C78.0269 120.769 77.863 120.157 78.1392 119.679ZM83.431 113.123C82.9718 112.816 82.3508 112.94 82.044 113.399C81.7371 113.858 81.8607 114.479 82.3199 114.786L92.2975 121.453C92.7567 121.76 93.3777 121.636 93.6845 121.177C93.9914 120.718 93.8679 120.097 93.4086 119.79L83.431 113.123ZM86.3512 107.389C86.6874 106.951 87.3152 106.868 87.7533 107.204L97.2735 114.509C97.7117 114.846 97.7943 115.473 97.4581 115.912C97.1219 116.35 96.4942 116.432 96.056 116.096L86.5358 108.791C86.0976 108.455 86.015 107.827 86.3512 107.389ZM92.4533 101.58C92.0381 101.216 91.4063 101.257 91.0422 101.672C90.678 102.088 90.7194 102.719 91.1347 103.084L100.157 110.996C100.572 111.36 101.204 111.318 101.568 110.903C101.932 110.488 101.891 109.856 101.475 109.492L92.4533 101.58ZM96.097 96.2758C96.4875 95.8853 97.1207 95.8853 97.5112 96.2758L105.996 104.761C106.387 105.152 106.387 105.785 105.996 106.175C105.606 106.566 104.973 106.566 104.582 106.175L96.097 97.69C95.7065 97.2995 95.7065 96.6664 96.097 96.2758ZM102.905 91.3133C102.541 90.8981 101.909 90.8567 101.494 91.2208C101.079 91.5849 101.037 92.2168 101.402 92.632L109.314 101.654C109.678 102.069 110.31 102.111 110.725 101.747C111.14 101.382 111.182 100.751 110.817 100.335L102.905 91.3133ZM107.21 86.5297C107.648 86.1935 108.276 86.2761 108.612 86.7143L115.917 96.2345C116.253 96.6727 116.171 97.3004 115.733 97.6366C115.294 97.9728 114.667 97.8902 114.331 97.452L107.025 87.9318C106.689 87.4936 106.772 86.8659 107.21 86.5297ZM114.608 82.4987C114.301 82.0395 113.68 81.916 113.221 82.2228C112.761 82.5296 112.638 83.1506 112.945 83.6098L119.612 93.5875C119.918 94.0467 120.539 94.1702 120.999 93.8634C121.458 93.5565 121.581 92.9355 121.275 92.4763L114.608 82.4987ZM119.5 78.3176C119.978 78.0414 120.59 78.2053 120.866 78.6836L126.866 89.0759C127.142 89.5542 126.978 90.1658 126.5 90.4419C126.022 90.7181 125.41 90.5542 125.134 90.0759L119.134 79.6836C118.858 79.2053 119.022 78.5937 119.5 78.3176ZM127.361 75.2868C127.116 74.7915 126.517 74.5879 126.022 74.8322C125.526 75.0765 125.323 75.676 125.567 76.1714L130.874 86.9338C131.119 87.4292 131.718 87.6327 132.214 87.3884C132.709 87.1442 132.912 86.5446 132.668 86.0493L127.361 75.2868ZM132.757 71.78C133.267 71.5687 133.852 71.811 134.063 72.3212L138.656 83.4078C138.867 83.918 138.625 84.503 138.114 84.7143C137.604 84.9257 137.019 84.6834 136.808 84.1731L132.216 73.0866C132.004 72.5763 132.247 71.9914 132.757 71.78ZM140.946 69.8007C140.768 69.2777 140.2 68.9977 139.677 69.1752C139.154 69.3527 138.874 69.9206 139.052 70.4436L142.909 81.8067C143.087 82.3297 143.654 82.6098 144.177 82.4322C144.7 82.2547 144.98 81.6868 144.803 81.1639L140.946 69.8007ZM146.754 67.029C147.287 66.8861 147.835 67.2027 147.978 67.7361L151.084 79.3272C151.227 79.8607 150.91 80.409 150.377 80.552C149.844 80.6949 149.295 80.3783 149.152 79.8449L146.046 68.2538C145.903 67.7203 146.22 67.172 146.754 67.029ZM155.131 66.1353C155.023 65.5937 154.496 65.2419 153.955 65.3496C153.413 65.4574 153.061 65.9839 153.169 66.5255L155.51 78.2949C155.618 78.8366 156.144 79.1884 156.686 79.0806C157.228 78.9729 157.579 78.4464 157.472 77.9048L155.131 66.1353ZM161.25 64.1453C161.798 64.0732 162.3 64.4587 162.372 65.0062L163.939 76.9036C164.011 77.4511 163.625 77.9535 163.078 78.0255C162.53 78.0976 162.028 77.7122 161.956 77.1646L160.39 65.2673C160.317 64.7197 160.703 64.2174 161.25 64.1453ZM169.673 64.3527C169.637 63.8016 169.161 63.3841 168.609 63.4203C168.058 63.4564 167.641 63.9324 167.677 64.4835L168.462 76.4578C168.498 77.0089 168.974 77.4264 169.525 77.3903C170.076 77.3542 170.494 76.8781 170.458 76.327L169.673 64.3527Z" fill="#5B5B5B"/>
</g>
<g style="mix-blend-mode:color-dodge">
<path d="M107.48 139.348C109.24 137.148 111.352 135.388 113.816 134.068C116.368 132.748 118.964 132.088 121.604 132.088H158.036C158.652 132.088 159.356 132.132 160.148 132.22L154.868 146.872H120.02L107.48 139.348ZM104.84 173.8C104.224 172.744 103.696 171.38 103.256 169.708C102.816 167.948 102.64 166.496 102.728 165.352L104.312 147.136C104.576 144.848 105.28 142.824 106.424 141.064L119.888 149.116L118.304 166.672C116.104 166.672 113.64 167.376 110.912 168.784C108.272 170.192 106.248 171.864 104.84 173.8ZM117.38 182.512C115.356 182.512 113.244 181.852 111.044 180.532C108.844 179.212 107.172 177.584 106.028 175.648C107.524 173.624 109.46 171.952 111.836 170.632C114.3 169.312 116.544 168.652 118.568 168.652H154.604C156.628 168.652 158.696 169.312 160.808 170.632C163.008 171.952 164.724 173.624 165.956 175.648C164.46 177.584 162.48 179.212 160.016 180.532C157.64 181.852 155.44 182.512 153.416 182.512H117.38ZM99.1637 207.196C99.0757 206.404 99.0757 205.612 99.1637 204.82L100.88 185.812C100.968 184.668 101.408 183.216 102.2 181.456C102.992 179.696 103.828 178.288 104.708 177.232C105.676 179.08 107.392 180.752 109.856 182.248C112.32 183.656 114.608 184.404 116.72 184.492L115.004 202.972L99.1637 207.196ZM113.816 220C110.384 220 107.348 218.988 104.708 216.964C102.068 214.852 100.308 212.256 99.4277 209.176L114.872 205.216H149.72L152.228 219.868C151.348 219.956 150.644 220 150.116 220H113.816ZM151.832 205.216L153.68 184.492C155.968 184.492 158.432 183.788 161.072 182.38C163.712 180.972 165.692 179.3 167.012 177.364C167.716 178.42 168.288 179.828 168.728 181.588C169.168 183.26 169.344 184.668 169.256 185.812L167.54 204.952C167.276 208.208 165.868 211.244 163.316 214.06C160.764 216.788 157.772 218.592 154.34 219.472L151.832 205.216ZM167.276 173.932C166.22 172.084 164.46 170.456 161.996 169.048C159.62 167.552 157.376 166.76 155.264 166.672L156.98 146.872L162.128 132.616C164.328 133.232 166.264 134.288 167.936 135.784C169.608 137.192 170.84 138.908 171.632 140.932C172.512 142.868 172.864 144.936 172.688 147.136L171.104 165.352C171.016 166.496 170.576 167.948 169.784 169.708C168.992 171.468 168.156 172.876 167.276 173.932Z" fill="#2A2A2A"/>
<path d="M189.464 139.348C191.224 137.148 193.336 135.388 195.8 134.068C198.352 132.748 200.948 132.088 203.588 132.088H240.02C240.636 132.088 241.34 132.132 242.132 132.22L236.852 146.872H202.004L189.464 139.348ZM186.824 173.8C186.208 172.744 185.68 171.38 185.24 169.708C184.8 167.948 184.624 166.496 184.712 165.352L186.296 147.136C186.56 144.848 187.264 142.824 188.408 141.064L201.872 149.116L200.288 166.672C198.088 166.672 195.624 167.376 192.896 168.784C190.256 170.192 188.232 171.864 186.824 173.8ZM199.364 182.512C197.34 182.512 195.228 181.852 193.028 180.532C190.828 179.212 189.156 177.584 188.012 175.648C189.508 173.624 191.444 171.952 193.82 170.632C196.284 169.312 198.528 168.652 200.552 168.652H236.588C238.612 168.652 240.68 169.312 242.792 170.632C244.992 171.952 246.708 173.624 247.94 175.648C246.444 177.584 244.464 179.212 242 180.532C239.624 181.852 237.424 182.512 235.4 182.512H199.364ZM181.148 207.196C181.06 206.404 181.06 205.612 181.148 204.82L182.864 185.812C182.952 184.668 183.392 183.216 184.184 181.456C184.976 179.696 185.812 178.288 186.692 177.232C187.66 179.08 189.376 180.752 191.84 182.248C194.304 183.656 196.592 184.404 198.704 184.492L196.988 202.972L181.148 207.196ZM195.8 220C192.368 220 189.332 218.988 186.692 216.964C184.052 214.852 182.292 212.256 181.412 209.176L196.856 205.216H231.704L234.212 219.868C233.332 219.956 232.628 220 232.1 220H195.8ZM233.816 205.216L235.664 184.492C237.952 184.492 240.416 183.788 243.056 182.38C245.696 180.972 247.676 179.3 248.996 177.364C249.7 178.42 250.272 179.828 250.712 181.588C251.152 183.26 251.328 184.668 251.24 185.812L249.524 204.952C249.26 208.208 247.852 211.244 245.3 214.06C242.748 216.788 239.756 218.592 236.324 219.472L233.816 205.216ZM249.26 173.932C248.204 172.084 246.444 170.456 243.98 169.048C241.604 167.552 239.36 166.76 237.248 166.672L238.964 146.872L244.112 132.616C246.312 133.232 248.248 134.288 249.92 135.784C251.592 137.192 252.824 138.908 253.616 140.932C254.496 142.868 254.848 144.936 254.672 147.136L253.088 165.352C253 166.496 252.56 167.948 251.768 169.708C250.976 171.468 250.14 172.876 249.26 173.932Z" fill="#2A2A2A"/>
</g>
<path d="M107.544 139.348C109.304 137.148 111.416 135.388 113.88 134.068C116.432 132.748 119.028 132.088 121.668 132.088H158.1C158.716 132.088 159.42 132.132 160.212 132.22L154.932 146.872H120.084L107.544 139.348ZM151.896 205.216L153.744 184.492C156.032 184.492 158.496 183.788 161.136 182.38C163.776 180.972 165.756 179.3 167.076 177.364C167.78 178.42 168.352 179.828 168.792 181.588C169.232 183.26 169.408 184.668 169.32 185.812L167.604 204.952C167.34 208.208 165.932 211.244 163.38 214.06C160.828 216.788 157.836 218.592 154.404 219.472L151.896 205.216ZM167.34 173.932C166.284 172.084 164.524 170.456 162.06 169.048C159.684 167.552 157.44 166.76 155.328 166.672L157.044 146.872L162.192 132.616C164.392 133.232 166.328 134.288 168 135.784C169.672 137.192 170.904 138.908 171.696 140.932C172.576 142.868 172.928 144.936 172.752 147.136L171.168 165.352C171.08 166.496 170.64 167.948 169.848 169.708C169.056 171.468 168.22 172.876 167.34 173.932Z" fill="url(#paint1_linear_1639_47158)"/>
<path d="M189.529 139.348C191.289 137.148 193.401 135.388 195.865 134.068C198.417 132.748 201.013 132.088 203.653 132.088H240.085C240.701 132.088 241.405 132.132 242.197 132.22L236.917 146.872H202.069L189.529 139.348ZM186.889 173.8C186.273 172.744 185.745 171.38 185.305 169.708C184.865 167.948 184.689 166.496 184.777 165.352L186.361 147.136C186.625 144.848 187.329 142.824 188.473 141.064L201.937 149.116L200.353 166.672C198.153 166.672 195.689 167.376 192.961 168.784C190.321 170.192 188.297 171.864 186.889 173.8ZM199.429 182.512C197.405 182.512 195.293 181.852 193.093 180.532C190.893 179.212 189.221 177.584 188.077 175.648C189.573 173.624 191.509 171.952 193.885 170.632C196.349 169.312 198.593 168.652 200.617 168.652H236.653C238.677 168.652 240.745 169.312 242.857 170.632C245.057 171.952 246.773 173.624 248.005 175.648C246.509 177.584 244.529 179.212 242.065 180.532C239.689 181.852 237.489 182.512 235.465 182.512H199.429ZM195.865 220C192.433 220 189.397 218.988 186.757 216.964C184.117 214.852 182.357 212.256 181.477 209.176L196.921 205.216H231.769L234.277 219.868C233.397 219.956 232.693 220 232.165 220H195.865ZM233.881 205.216L235.729 184.492C238.017 184.492 240.481 183.788 243.121 182.38C245.761 180.972 247.741 179.3 249.061 177.364C249.765 178.42 250.337 179.828 250.777 181.588C251.217 183.26 251.393 184.668 251.305 185.812L249.589 204.952C249.325 208.208 247.917 211.244 245.365 214.06C242.813 216.788 239.821 218.592 236.389 219.472L233.881 205.216Z" fill="url(#paint2_linear_1639_47158)"/>
<defs>
<linearGradient id="paint0_linear_1639_47158" x1="283" y1="71" x2="78" y2="276" gradientUnits="userSpaceOnUse">
<stop stop-color="#5ABF58"/>
<stop offset="0.165854" stop-color="#3AC592"/>
<stop offset="0.280488" stop-color="#14B4AE"/>
<stop offset="0.378683" stop-color="#12B0CD"/>
<stop offset="0.507317" stop-color="#3FAAE8"/>
<stop offset="0.621951" stop-color="#68A3F9"/>
<stop offset="0.721951" stop-color="#8C9BFF"/>
<stop offset="0.82439" stop-color="#AA8EFF"/>
<stop offset="1" stop-color="#FF80AE"/>
</linearGradient>
<linearGradient id="paint1_linear_1639_47158" x1="176" y1="128" x2="176" y2="224" gradientUnits="userSpaceOnUse">
<stop offset="0.270833" stop-color="#FEFAFF"/>
<stop offset="1" stop-color="#FDECFF"/>
</linearGradient>
<linearGradient id="paint2_linear_1639_47158" x1="176" y1="128" x2="176" y2="224" gradientUnits="userSpaceOnUse">
<stop offset="0.270833" stop-color="#FEFAFF"/>
<stop offset="1" stop-color="#FDECFF"/>
</linearGradient>
</defs>
</svg>